<?xml version="1.0" encoding="UTF-8" standalone="no"?>
<svg width="20px" height="18px" viewBox="0 0 20 18" version="1.1" xmlns="http://www.w3.org/2000/svg" xmlns:xlink="http://www.w3.org/1999/xlink">
    <!-- Generator: Sketch 48.2 (47327) - http://www.bohemiancoding.com/sketch -->
    <title>Group 2</title>
    <desc>Created with Sketch.</desc>
    <defs></defs>
    <g id="Page-1" stroke="none" stroke-width="1" fill="none" fill-rule="evenodd">
        <g id="Group-2" transform="translate(-3.000000, -3.000000)">
            <path d="M12.0078129,7 C12.4140649,7.03125016 12.7265618,7.24999797 12.9453129,7.65625 L14.3046879,11.078125 C15.0546916,11.2343758 15.5859363,11.6562466 15.8984379,12.34375 C16.0859388,12.8750027 16.0781264,13.3906225 15.8750004,13.890625 C15.6718743,14.3906275 15.3046905,14.7421865 14.7734379,14.9453125 C14.2421852,15.1484385 13.7265654,15.1484385 13.2265629,14.9453125 C12.7265604,14.7421865 12.3671889,14.3750027 12.1484379,13.84375 C12.0234372,13.4999983 11.9921875,13.1562517 12.0546879,12.8125 C12.1171882,12.4687483 12.2578118,12.1562514 12.4765629,11.875 L11.0703129,8.359375 C10.9765624,8.07812359 10.9765624,7.82031367 11.0703129,7.5859375 C11.1640633,7.35156133 11.3515614,7.17187562 11.6328129,7.046875 C11.7578135,7.01562484 11.8828122,7 12.0078129,7 Z" id="-copy" fill="#89BD76" transform="translate(13.516719, 11.048829) scale(-1, 1) translate(-13.516719, -11.048829) "></path>
            <path d="M13,22 C17.9705627,22 22,17.9705627 22,13 C22,8.02943725 17.9705627,4 13,4 C8.02943725,4 4,8.02943725 4,13" id="Oval-2" stroke="#89BD76" stroke-width="2" transform="translate(13.000000, 13.000000) rotate(-45.000000) translate(-13.000000, -13.000000) "></path>
        </g>
    </g>
</svg>