<?xml version="1.0" encoding="UTF-8" standalone="no"?>
<svg width="23px" height="13px" viewBox="0 0 23 13" version="1.1" xmlns="http://www.w3.org/2000/svg" xmlns:xlink="http://www.w3.org/1999/xlink">
    <!-- Generator: Sketch 48.2 (47327) - http://www.bohemiancoding.com/sketch -->
    <title>Page 1</title>
    <desc>Created with Sketch.</desc>
    <defs>
        <polygon id="path-1" points="0.0004 0.00038 22.0304 0.00038 22.0304 12.98338 0.0004 12.98338"></polygon>
    </defs>
    <g id="Page-1" stroke="none" stroke-width="1" fill="none" fill-rule="evenodd">
        <g>
            <mask id="mask-2" fill="white">
                <use xlink:href="#path-1"></use>
            </mask>
            <g id="Clip-2"></g>
            <path d="M20.8124,9.77338 C21.5624,10.16338 21.9684,10.68738 22.0304,11.34338 L22.0304,12.98338 L19.0304,12.98338 L19.0304,11.01538 C19.0004,10.20338 18.7664,9.51538 18.3284,8.95338 C19.2344,9.10938 20.0624,9.38338 20.8124,9.77338 M18.7964,2.90538 C19.2664,3.37538 19.5004,3.96138 19.5004,4.66338 C19.5004,5.36738 19.2664,5.95338 18.7964,6.42138 C18.3284,6.89138 17.7344,7.14138 17.0164,7.17138 C16.5784,7.17138 16.1804,7.06938 15.8204,6.86738 C15.4604,6.66338 15.1564,6.39138 14.9064,6.04738 C15.6244,5.17138 16.0004,4.15538 16.0304,2.99938 C16.0304,2.81338 16.0164,2.60938 15.9844,2.39138 C16.2964,2.23338 16.6404,2.15538 17.0164,2.15538 C17.7344,2.18738 18.3284,2.43738 18.7964,2.90538 M13.1244,0.89138 C13.6864,1.45338 13.9684,2.15538 13.9684,2.99938 C13.9684,3.84338 13.6864,4.54738 13.1244,5.10938 C12.5624,5.67138 11.8584,5.95338 11.0164,5.95338 C10.1724,5.95338 9.4684,5.67138 8.9064,5.10938 C8.3444,4.54738 8.0624,3.84338 8.0624,2.99938 C8.0624,2.15538 8.3444,1.45338 8.9064,0.89138 C9.4684,0.32738 10.1724,0.03138 11.0164,-0.00062 C11.8584,0.03138 12.5624,0.32738 13.1244,0.89138 M14.7664,8.76538 C16.1404,9.26538 16.8904,10.01538 17.0164,11.01538 L17.0164,12.98338 L5.0164,12.98338 L5.0164,11.01538 C5.1404,10.01538 5.8904,9.26538 7.2664,8.76538 C8.6404,8.26538 9.8904,8.01538 11.0164,8.01538 C12.1404,8.01538 13.3904,8.26538 14.7664,8.76538 M6.0464,2.39138 C6.0164,2.60938 6.0004,2.81338 6.0004,2.99938 C6.0304,4.15538 6.4064,5.17138 7.1244,6.04738 C6.8744,6.39138 6.5704,6.66338 6.2104,6.86738 C5.8524,7.06938 5.4524,7.17138 5.0164,7.17138 C4.2964,7.14138 3.7024,6.89138 3.2344,6.42138 C2.7664,5.95338 2.5304,5.36738 2.5304,4.66338 C2.5304,3.96138 2.7664,3.37538 3.2344,2.90538 C3.7024,2.43738 4.2964,2.18738 5.0164,2.15538 C5.3904,2.15538 5.7344,2.23338 6.0464,2.39138 M3.0004,11.01538 L3.0004,12.98338 L0.0004,12.98338 L0.0004,11.34338 C0.0624,10.68738 0.4684,10.16338 1.2184,9.77338 C1.9684,9.38338 2.7964,9.10938 3.7024,8.95338 C3.2664,9.51538 3.0304,10.20338 3.0004,11.01538" id="Fill-1" fill="#88BC75" mask="url(#mask-2)"></path>
        </g>
    </g>
</svg>